<svg width="40" height="30" viewBox="0 0 40 30" fill="none" xmlns="http://www.w3.org/2000/svg">
<path d="M26.3011 27.4338C24.8211 28.3211 23.2427 28.8599 21.6015 29.2152C20.7297 29.404 19.8481 29.5058 18.958 29.5425C18.3616 29.5671 17.7659 29.6378 17.1689 29.5999C16.2217 29.5399 15.2748 29.486 14.3295 29.3775C13.6078 29.2946 12.8878 29.1822 12.1587 29.1478C11.4135 29.1127 10.6718 29.0008 9.92812 28.9277C9.37521 28.8733 8.82134 28.8296 8.26826 28.7769C7.49431 28.7031 6.72082 28.624 5.94691 28.5497C5.39397 28.4967 4.84152 28.4269 4.28731 28.4021C3.47894 28.3658 2.68346 28.2078 1.87691 28.1576C1.35295 28.125 0.83113 28.0562 0.307367 28.0186C0.0847331 28.0026 0.0160488 27.944 0.122696 27.7093C0.568363 26.7285 1.00187 25.7417 1.44035 24.7574C2.0993 23.2781 2.76133 21.8003 3.4172 20.3196C4.17984 18.5978 4.91711 16.8634 5.70456 15.1542C6.17301 14.1373 6.55141 13.0844 6.97521 12.0498C7.87661 9.84942 9.14819 7.90583 10.8542 6.29893C11.5501 5.64352 12.3274 5.09372 13.1495 4.604C13.9177 4.1464 14.7107 3.76317 15.5372 3.45329C16.8253 2.97036 18.1541 2.66765 19.5204 2.55195C20.3367 2.48282 21.1549 2.39526 21.9728 2.43713C23.3229 2.50626 24.6708 2.57004 26.0103 2.83228C27.0238 3.03072 28.0289 3.2578 29.027 3.51804C29.702 3.69404 30.3605 3.93915 31.0257 4.15582C31.4683 4.3 31.913 4.43741 32.3375 4.63739C32.4716 4.70058 32.605 4.68574 32.7349 4.58176C34.1864 3.42022 35.6427 2.26528 37.0929 1.10213C37.2609 0.967417 37.4218 0.824191 37.5953 0.695132C37.9142 0.457831 38.2436 0.487532 38.5295 0.698921C38.8658 0.947575 39.1305 1.27901 39.076 1.76157C39.053 1.96545 38.9083 2.09956 38.7661 2.21642C37.6234 3.15512 36.4772 4.08914 35.3312 5.02334C34.4478 5.74343 33.5602 6.45795 32.6818 7.18462C32.5425 7.29989 32.4259 7.32571 32.2689 7.24854C31.2625 6.75389 30.2128 6.36381 29.1536 6.03052C27.7265 5.5815 26.2804 5.20192 24.7893 5.00675C23.6413 4.85649 22.4963 4.75044 21.3437 4.78393C20.0098 4.82269 18.6951 4.99982 17.3995 5.37702C16.0945 5.75695 14.8689 6.29867 13.7343 7.06038C12.4045 7.95314 11.2542 9.05863 10.3263 10.3962C9.65515 11.3637 9.12073 12.4062 8.76261 13.5566C8.38062 14.7837 8.24906 16.0327 8.31971 17.3016C8.39164 18.5934 8.7087 19.8333 9.23677 21.0123C9.89739 22.4872 10.8299 23.7327 11.9984 24.8128C12.9063 25.6521 13.9263 26.2931 15.0299 26.7637C16.2005 27.2629 17.4331 27.5382 18.7146 27.5822C19.9708 27.6253 21.2061 27.489 22.4102 27.1625C23.616 26.8356 24.7538 26.3072 25.7769 25.5405C27.2411 24.4434 28.3428 23.0523 29.0161 21.2941C29.5581 19.8788 29.7148 18.4033 29.5758 16.9115C29.4711 15.7888 29.1448 14.7123 28.5991 13.7089C28.2242 13.0195 27.8063 12.3941 27.2108 11.8963C26.6015 11.3869 25.9199 11.0332 25.1807 10.7892C24.3766 10.5237 23.5517 10.3626 22.7097 10.3714C21.4657 10.3844 20.2654 10.6398 19.1196 11.166C17.5815 11.8723 16.3681 12.9474 15.565 14.5025C15.1134 15.3768 14.8062 16.2925 14.8151 17.3021C14.8245 18.3522 15.1918 19.2586 15.8456 20.0375C16.8617 21.2477 18.1689 21.8174 19.6929 21.7846C21.1681 21.7529 22.4503 20.896 23.0593 19.4103C23.4023 18.5734 23.4993 17.7075 23.5138 16.8188C23.5218 16.3262 23.6347 15.9072 24.0812 15.6436C24.5182 15.3855 25.1202 15.4203 25.472 15.7296C25.698 15.9282 25.7407 16.2011 25.7573 16.4707C25.826 17.5895 25.6876 18.6908 25.3402 19.7452C24.9102 21.0508 24.1347 22.0879 22.9825 22.8121C22.2371 23.2806 21.4517 23.615 20.6001 23.7895C20.0585 23.9004 19.5141 23.8662 18.9724 23.8162C17.9991 23.7265 17.0602 23.4933 16.1895 23.0107C14.6954 22.1827 13.6838 20.9458 13.1344 19.2606C12.5638 17.5101 12.797 15.8182 13.3897 14.1574C13.8663 12.8217 14.6651 11.7129 15.7445 10.8076C16.8794 9.85577 18.1316 9.17431 19.5069 8.69535C20.9632 8.18813 22.4626 8.19736 23.9532 8.29606C24.926 8.36047 25.8683 8.69515 26.7726 9.1093C28.6483 9.96835 30.0516 11.3546 30.9671 13.2549C31.4641 14.2865 31.7225 15.3969 31.801 16.561C31.8489 17.2715 31.7922 17.9729 31.7908 18.6785C31.7898 19.1391 31.6597 19.5763 31.5765 20.0179C31.435 20.7688 31.2211 21.5057 30.9199 22.2091C30.3179 23.6147 29.4755 24.8369 28.3746 25.8655C27.7402 26.4582 27.0534 26.9727 26.3011 27.4338Z" fill="#D51919"/>
</svg>
